<?xml version="1.0" encoding="UTF-8"?>
<svg xmlns="http://www.w3.org/2000/svg" xmlns:xlink="http://www.w3.org/1999/xlink" width="113.718mm" height="216.857mm" viewBox="-766.488892 90.215271 113.718018 216.856995">
    <path transform="matrix(-1,0,0,1,-889.496216,90.07959)" style="stroke:#000000;stroke-width:0.05mm;fill:none" d="M-236.725327,202.779297C-236.66713,202.824265,-236.638016,202.863968,-236.600983,202.877197C-235.632614,203.186752,-234.658936,203.488373,-233.690567,203.805878C-233.285751,203.938171,-232.89682,204.094284,-232.492004,204.258331C-232.348419,204.307419,-232.223618,204.399872,-232.134811,204.522903C-231.96283,204.835114,-231.640045,204.882736,-231.388687,205.052078C-230.534088,205.644745,-229.557785,205.517746,-228.62114,205.65004C-228.367691,205.680298,-228.119431,205.74437,-227.882965,205.84053C-227.090607,206.158325,-226.262573,206.378662,-225.417038,206.496689C-224.727203,206.642914,-224.053604,206.857407,-223.406219,207.136978C-222.548965,207.459763,-221.710251,207.840759,-220.852982,208.168854C-219.925766,208.47522,-219.166412,209.15126,-218.754837,210.036819C-218.640945,210.240692,-218.509964,210.434525,-218.363266,210.616257C-218.291824,210.719452,-218.1754,210.827911,-218.172775,210.936401C-218.146317,211.851868,-217.468979,212.259323,-216.820755,212.666779C-216.40535,212.931351,-215.966156,213.15625,-215.529587,213.383804C-214.88681,213.724014,-214.288696,214.142609,-213.748947,214.62999C-213.129211,215.164993,-212.372223,215.515991,-211.563477,215.643356C-210.576584,215.812683,-209.584396,215.955566,-208.592209,216.109024C-207.004715,216.355087,-205.417221,216.572037,-203.842941,216.855148C-203.004318,217.028748,-202.14003,217.038635,-201.297653,216.884247C-200.191696,216.659363,-199.080444,216.82605,-197.969193,216.823395C-197.116516,216.824417,-196.265503,216.74826,-195.426544,216.595856C-194.848282,216.449768,-194.287613,216.241287,-193.754379,215.974091C-193.608856,215.913254,-193.508316,215.743912,-193.386612,215.624847C-193.053223,215.294113,-192.711914,214.971329,-192.391769,214.630005C-192.28215,214.511063,-192.202347,214.367783,-192.158936,214.21196C-192.034592,213.717194,-191.96315,213.206543,-191.820267,212.717056C-191.62735,212.172195,-191.537628,211.596161,-191.555679,211.018448C-191.583084,210.782623,-191.496643,210.547836,-191.322845,210.386078C-190.92067,209.973328,-190.563492,209.51561,-190.156036,209.105499C-189.924011,208.910416,-189.803223,208.613388,-189.833252,208.311737C-189.852493,207.948456,-189.741821,207.590179,-189.521042,207.301025C-189.271606,206.876175,-189.066772,206.42662,-188.909866,205.959595C-188.66626,205.318985,-188.281998,204.741226,-187.785385,204.268906C-187.384216,203.911346,-187.125793,203.420837,-187.057755,202.887787C-187.008453,202.680695,-186.929138,202.481918,-186.822281,202.297775C-186.469498,201.45462,-186.11055,200.610596,-185.745422,199.765701C-185.409393,198.971954,-185.068085,198.194077,-184.742661,197.405624C-184.351074,196.45842,-183.970078,195.508575,-183.583786,194.561356C-183.539017,194.464005,-183.486816,194.370255,-183.427673,194.280899C-182.898499,193.405121,-182.34552,192.539932,-181.840164,191.635071C-181.612625,191.23024,-181.475037,190.775162,-181.284546,190.346542C-181.149582,189.96701,-180.972046,189.603973,-180.755386,189.264389C-180.146851,188.470642,-179.509186,187.676895,-178.837158,186.938705C-178.017776,186.033844,-177.114136,185.20903,-176.138397,184.475433C-175.666763,184.1008,-175.063644,183.932831,-174.466232,184.009766C-173.722244,184.091858,-172.970367,184.06781,-172.233154,183.938324C-171.48024,183.817566,-170.827728,183.350235,-170.471024,182.676254C-170.060928,181.951309,-169.706375,181.194595,-169.349197,180.443176C-169.074768,179.788437,-168.973633,179.07402,-169.055511,178.368835C-169.08992,177.711365,-169.08992,177.052521,-169.055511,176.395035C-169.047241,175.924789,-168.990494,175.456635,-168.886185,174.998032C-168.748215,174.597061,-168.576508,174.208481,-168.372894,173.836502C-168.163879,173.381439,-167.72731,173.325867,-167.31456,173.243851C-167.020874,173.188278,-166.729813,173.111557,-166.433487,173.066574C-166.009293,172.990906,-165.571976,173.063797,-165.195236,173.272964C-163.96228,173.960876,-162.71344,174.61969,-161.491074,175.34465C-161.064133,175.627853,-160.680832,175.971924,-160.353363,176.365936C-159.919479,176.839722,-159.523148,177.346619,-159.168045,177.882004C-158.886337,178.359329,-158.631927,178.852249,-158.406036,179.358383C-158.018448,180.049347,-157.76358,180.806747,-157.654617,181.591461C-157.625656,181.846115,-157.567062,182.096512,-157.479996,182.337585C-157.130737,183.348297,-156.739166,184.345779,-156.421661,185.364426C-156.157074,186.21109,-155.627914,186.864609,-155.067001,187.520782C-154.775955,187.862091,-154.482269,188.19812,-154.180649,188.531494C-154.048233,188.700333,-153.891266,188.848358,-153.714981,188.970688C-152.712219,189.536911,-151.992538,190.447067,-151.069153,191.108536C-150.490005,191.516998,-149.869171,191.8629,-149.217072,192.140411C-148.513275,192.452621,-147.838577,192.140411,-147.309418,191.714432C-146.052765,190.72847,-144.884216,189.635178,-143.81691,188.446838C-142.306137,186.692657,-141.467407,184.605087,-140.753036,182.446091C-140.451401,181.535919,-140.099518,180.638977,-139.729095,179.75264C-139.180038,178.45755,-139.153488,177.000214,-139.654999,175.685989C-139.79068,175.19458,-139.879272,174.69136,-139.919586,174.183167C-139.923279,173.887085,-139.960556,173.592392,-140.030701,173.304733C-140.311172,172.637985,-140.329681,171.944778,-140.395828,171.243637C-140.480499,170.352005,-140.660416,169.468277,-140.782135,168.579285C-140.811493,168.476425,-140.830978,168.371002,-140.840332,168.264435C-140.76889,166.862137,-141.104919,165.499527,-141.234558,164.118408C-141.288559,163.64975,-141.236115,163.174927,-141.0811,162.729355C-140.860245,162.221924,-141.015518,161.629272,-141.456802,161.295319C-142.168274,160.671875,-142.451431,159.691147,-142.181747,158.784424C-142.14505,158.596268,-142.130844,158.404434,-142.139435,158.212936C-142.139435,157.569992,-142.115616,156.924408,-142.157944,156.284119C-142.175217,155.836273,-142.093918,155.390076,-141.919815,154.977081C-141.769012,154.582855,-141.726685,154.143631,-141.562637,153.754715C-141.293274,153.07933,-140.97583,152.424118,-140.612778,151.794159C-139.483002,149.942062,-139.001465,147.896851,-138.924728,145.745789C-138.903564,145.101959,-138.873581,144.460785,-138.834763,143.82225C-138.813004,143.610123,-138.776764,143.399734,-138.726303,143.192551C-138.596649,142.544312,-138.448486,141.901382,-138.339996,141.250504C-138.250046,140.784775,-138.364746,140.302872,-138.654861,139.927582C-138.813232,139.725113,-138.911346,139.482101,-138.937958,139.226425C-138.977661,138.464432,-139.038498,137.705078,-138.832123,136.937775C-138.617844,136.104675,-138.617844,135.230881,-138.832123,134.397781C-138.911087,134.132507,-138.950333,133.856995,-138.948532,133.580215C-138.853287,131.828674,-138.710403,130.082428,-138.628387,128.330887C-138.562241,126.960342,-138.0569,125.714142,-137.697052,124.417686C-137.371857,123.232208,-137.384689,121.979408,-137.7341,120.800827C-138.002563,119.8078,-138.034286,118.76564,-137.826691,117.758133C-137.599152,116.490768,-137.768494,115.247231,-138.033081,114.00898C-138.04895,113.934891,-138.115097,113.871399,-138.279129,113.823769C-138.260605,113.987808,-138.25531,114.154503,-138.220932,114.313248C-138.186554,114.472,-138.101868,114.63604,-138.067474,114.802727C-137.988098,115.218117,-138.160065,115.419197,-138.596634,115.390099C-138.916794,115.366287,-139.234283,115.321297,-139.551773,115.265747C-140.157669,115.154617,-140.760925,115.019676,-141.369461,114.919144C-141.713425,114.863586,-141.792786,114.612228,-141.827194,114.300018L-142.673859,114.413788C-142.740005,114.223289,-142.755875,113.966637,-142.864349,113.916367C-143.626358,113.553886,-143.814209,112.85804,-143.922684,112.135719C-143.988831,111.65683,-144.166092,111.410767,-144.666168,111.341972C-144.860687,111.278107,-145.009277,111.119537,-145.060394,110.921288C-145.102722,110.497948,-145.367294,110.283638,-145.663651,110.066681C-145.823456,109.960052,-145.976318,109.843407,-146.121368,109.71743C-146.740509,109.151207,-147.322571,109.188263,-148.195709,109.802094C-148.229355,109.829063,-148.261169,109.858231,-148.290955,109.889397C-148.420609,110.008469,-148.59787,110.153976,-148.716934,109.966133C-148.79631,109.841782,-148.732803,109.614243,-148.695755,109.436974C-148.682541,109.378761,-148.571411,109.323196,-148.492035,109.29409C-147.997253,109.122124,-147.767075,108.727882,-147.613617,108.251633C-147.249893,108.185226,-146.875748,108.288498,-146.597595,108.532089C-146.139877,108.846947,-145.676865,109.156502,-145.221771,109.474007C-145.092377,109.548897,-144.977646,109.646606,-144.883087,109.762413C-144.740128,110.048286,-144.514206,110.284363,-144.234863,110.439743C-143.94693,110.617363,-143.680573,110.827789,-143.441116,111.066803C-143.499313,111.595963,-143.229446,112.01136,-142.710861,112.305054C-142.518723,112.457176,-142.348633,112.635269,-142.205505,112.834213C-141.57489,112.818878,-140.950882,112.965553,-140.393127,113.260193C-140.212265,113.31543,-140.02597,113.350922,-139.837509,113.36602C-138.895584,113.6306,-138.04892,113.294594,-137.20755,112.958557C-137.020554,112.864197,-136.843307,112.751663,-136.678375,112.622543C-136.326477,112.387047,-135.971939,112.151581,-135.620041,111.908157C-135.495468,111.826279,-135.386963,111.722252,-135.299896,111.601242C-134.892441,110.992706,-134.545837,110.355057,-134.601395,109.585121C-134.608917,109.245461,-134.524826,108.910042,-134.357971,108.614098C-134.089767,108.035698,-133.871155,107.4356,-133.704468,106.820221C-133.552963,106.335114,-133.376343,105.858231,-133.175293,105.391472C-132.847275,104.501404,-132.43161,103.646111,-131.934402,102.838242C-131.796814,102.623932,-131.690994,102.385811,-131.537521,102.18737C-131.028656,101.49633,-130.676529,100.702682,-130.505646,99.861679C-130.485184,99.735847,-130.44873,99.613152,-130.397171,99.496559C-129.846832,98.456749,-129.711899,97.303162,-129.460556,96.183975C-129.2715,95.369385,-128.922546,94.600456,-128.43396,93.921791C-127.9048,93.188896,-127.351822,92.485107,-126.769737,91.805122C-126.477287,91.492134,-126.306458,91.084824,-126.288208,90.656837C-126.268173,90.185112,-126.120003,89.72776,-125.859573,89.333916C-125.732071,89.117928,-125.652649,88.876961,-125.62674,88.62748C-126.372864,89.024353,-126.394043,89.902771,-126.880859,90.532478C-127.094597,90.246292,-127.144669,89.869743,-127.013153,89.537643C-126.719482,88.781075,-126.525597,87.989494,-126.436371,87.182854C-126.309372,86.32296,-126.097687,86.233002,-125.213989,86.579605C-125.248383,86.703957,-125.274841,86.844185,-125.317177,86.968544C-125.368149,87.085327,-125.400299,87.209457,-125.41243,87.336319C-124.602798,86.928856,-123.782608,86.563728,-123.007347,85.894333C-123.41481,85.894333,-123.687347,85.894333,-123.959846,85.894333C-124.908737,85.896378,-125.834267,85.600204,-126.605682,85.047668C-127.636063,84.354591,-128.705917,83.722054,-129.809784,83.153244C-130.532318,82.781548,-131.164536,82.255913,-131.661865,81.613373C-132.614365,80.457146,-133.577454,79.311493,-134.535248,78.157913C-134.699066,77.988411,-134.837219,77.795876,-134.945343,77.586411C-135.474503,76.223808,-136.617508,75.332169,-137.527679,74.260597C-137.554123,74.228851,-137.580597,74.181229,-137.61499,74.170639C-138.514587,73.89283,-138.903519,73.027641,-139.559677,72.469368C-139.962875,72.088074,-140.415924,71.763199,-140.906418,71.503647C-141.096817,71.411247,-141.266861,71.281708,-141.406479,71.122643C-142.041489,70.429436,-142.618271,69.678024,-143.298264,69.029785C-143.74556,68.570908,-144.383972,68.351311,-145.018921,68.437912C-145.653885,68.524529,-146.210144,68.907082,-146.518234,69.468994C-146.590515,69.621513,-146.636154,69.785271,-146.653168,69.953178C-146.70874,70.244225,-146.729889,70.545845,-146.801331,70.834244C-146.946854,71.413681,-147.129425,71.982529,-147.050049,72.596367C-147.031586,72.767883,-147.046875,72.941353,-147.095016,73.10701C-147.460144,74.369072,-147.290802,75.652298,-147.245834,76.930244C-147.245834,77.292717,-147.216736,77.655197,-147.211441,78.020325C-147.195557,79.454369,-147.190262,80.891052,-147.171738,82.325089C-147.171738,82.793404,-147.097656,83.261719,-147.102951,83.730026C-147.082199,84.218712,-147.391037,84.660843,-147.85701,84.809525C-148.106171,84.590767,-148.339569,84.354698,-148.555511,84.103081C-149.668747,82.558311,-150.476974,80.815277,-150.936752,78.967522C-151.058533,78.382759,-151.131989,77.788979,-151.156372,77.192169C-151.177536,75.869255,-151.592941,74.665405,-152.082413,73.487999C-152.442245,72.620171,-152.921127,71.802605,-153.360352,70.96917C-153.486252,70.745071,-153.630493,70.531799,-153.791626,70.331528C-153.992401,70.05069,-154.325943,69.895966,-154.670044,69.924065C-156.239014,69.953163,-156.413651,70.045769,-157.233856,71.376625C-157.456253,71.766075,-157.711166,72.13604,-157.99585,72.482582C-158.360977,72.905914,-158.665253,72.882103,-159.167953,72.442894C-159.075699,72.395615,-158.980209,72.354942,-158.882202,72.32119C-158.530624,72.252907,-158.296539,71.918144,-158.353043,71.564484C-158.371948,70.806488,-158.086014,70.072594,-157.55928,69.527191C-157.272888,69.205124,-157.096771,68.800064,-157.05658,68.370964C-156.998657,67.947968,-156.910248,67.529716,-156.791992,67.119484C-156.62265,66.521523,-156.262817,66.344254,-155.733658,66.611473C-155.445251,66.754356,-155.188614,66.891937,-154.905502,66.672333C-154.532455,66.386589,-154.032394,66.227837,-153.984772,65.613998C-153.945694,65.254128,-153.838852,64.9049,-153.669907,64.58477C-153.136337,63.510265,-152.778992,62.356953,-152.611572,61.169003C-152.550888,60.684689,-152.338837,60.231907,-152.005692,59.875187C-151.505325,59.362789,-151.269958,58.647865,-151.368042,57.938435C-151.460648,57.221413,-151.569138,56.451477,-151.413025,55.766205C-151.174896,54.729038,-151.20401,53.689224,-151.116684,52.652058C-151.079651,52.207561,-151.116684,51.757767,-151.116684,51.310619C-151.139771,50.82254,-151.125626,50.333405,-151.074371,49.847473C-150.923553,48.897621,-150.703934,47.960995,-150.516098,47.019077C-150.468857,46.788525,-150.436157,46.555229,-150.418198,46.320576C-150.330887,45.021473,-150.232986,43.719723,-150.172134,42.417973C-150.156189,41.991661,-150.193512,41.565025,-150.283264,41.147972C-150.428787,40.436241,-150.608688,39.729805,-150.812424,39.031307C-150.956238,38.631691,-151.1241,38.241154,-151.31514,37.861847C-151.394058,37.710896,-151.459579,37.553303,-151.510925,37.390888C-151.966003,35.274223,-152.487244,33.18137,-152.833847,31.054119C-153.077255,29.561871,-153.07991,28.043163,-152.442276,26.580013C-152.068298,25.738152,-151.887497,24.823261,-151.913101,23.902431C-151.958084,22.664181,-152.021576,21.42593,-152.093018,20.198265C-152.115311,19.663124,-152.01767,19.129768,-151.807266,18.637222C-151.455795,17.782753,-151.351303,16.846771,-151.50563,15.935826C-151.686295,15.008609,-152.101669,14.143199,-152.712143,13.422286C-153.673492,12.251239,-154.778442,11.205852,-156.0009,10.310784C-156.323944,10.066244,-156.577499,9.741551,-156.73645,9.368868C-156.939682,8.826241,-157.258362,8.334236,-157.670441,7.926888C-157.798279,7.785662,-157.901169,7.623719,-157.974716,7.447992C-158.588547,6.320868,-159.183868,5.183159,-159.826797,4.07191C-160.190308,3.487301,-160.713654,3.019043,-161.33493,2.722534C-161.87265,2.416243,-162.272339,1.915258,-162.451508,1.322917C-162.554703,1.002771,-162.549408,0.632354,-162.927765,0.468313C-163.380203,0.269876,-163.86174,0.010584,-164.340637,0.20373C-165.240234,0.558271,-166.171555,0.574146,-167.108185,0.619125C-167.277435,0.621804,-167.441803,0.676285,-167.579147,0.775229C-168.637482,1.635125,-169.695816,2.500313,-170.717102,3.389313C-171.048462,3.692966,-171.35463,4.023014,-171.632568,4.376208C-171.960648,4.767791,-171.852188,5.273146,-171.942123,5.728229C-171.945496,5.940948,-171.964066,6.153158,-171.997696,6.36323C-172.349594,7.291916,-172.262283,8.247063,-172.262283,9.210145C-172.219223,10.599999,-172.364288,11.989295,-172.693558,13.340291C-172.844238,13.855395,-172.880371,14.397241,-172.799393,14.927791C-172.775925,15.180144,-172.823593,15.434024,-172.936981,15.660686C-173.70163,17.398998,-175.05365,18.586975,-176.664963,19.494499C-177.784149,20.124207,-178.950974,20.666603,-180.05957,21.312187C-180.720505,21.705467,-181.345566,22.156116,-181.927536,22.658916C-182.265915,22.980556,-182.643768,23.257938,-183.052017,23.484417L-185.475586,24.659168C-185.556427,24.685837,-185.635162,24.718559,-185.711075,24.757065C-186.160873,25.069271,-186.658279,26.418648,-186.457199,26.950462C-186.220901,27.59325,-186.104324,28.273869,-186.113251,28.958649C-186.121277,29.235313,-186.020599,29.504105,-185.832779,29.70742C-185.646973,29.962868,-185.484909,30.234756,-185.348587,30.519691C-185.306274,30.593777,-185.282455,30.689026,-185.221603,30.736652C-184.703522,31.189602,-184.023407,31.412174,-183.337769,31.353134C-182.959412,31.308155,-182.890625,31.15205,-182.956772,30.760464C-182.963791,30.696491,-182.980743,30.634007,-183.007034,30.575256C-183.216049,30.183674,-183.141983,29.834423,-182.800659,29.482529L-181.742325,29.482529C-181.63385,29.778858,-181.477737,30.043442,-181.387772,30.374172C-181.228745,30.766037,-180.836029,31.011471,-180.414108,30.982716C-179.85849,30.982716,-179.559509,31.289631,-179.308151,31.712963C-179.133835,31.988148,-179.106125,32.33149,-179.234055,32.631065C-179.353134,32.945923,-179.395447,33.289883,-179.498642,33.617962C-179.601837,33.946041,-179.371643,34.147129,-179.136169,34.287357C-178.900681,34.427586,-178.6996,34.237087,-178.554077,34.022774C-178.345062,33.72644,-178.136032,33.424816,-177.913788,33.139065C-177.691559,32.853317,-177.524857,32.792461,-177.210007,32.993546C-176.956238,33.153084,-176.720291,33.339355,-176.506226,33.549171C-175.935608,34.175003,-175.110062,34.505421,-174.265213,34.44611C-173.898254,34.400471,-173.538437,34.573151,-173.344467,34.887962C-173.048141,35.298069,-172.762375,35.710815,-172.243805,35.93042C-172.013626,36.025673,-171.868103,36.377567,-171.741089,36.642151C-171.588715,36.993675,-171.455338,37.353153,-171.341568,37.719006C-171.076981,38.459843,-170.812408,39.205963,-170.566345,39.944153C-169.253372,40.525761,-168.130966,41.465698,-167.32785,42.656132C-167.373367,43.129829,-167.737686,43.510559,-168.208908,43.576881C-168.439102,43.621861,-168.666641,43.682713,-168.899475,43.719753C-169.316589,43.791817,-169.724686,43.90892,-170.116547,44.069008C-170.486969,44.214527,-170.949997,44.106049,-171.370667,44.137798C-171.604431,44.16354,-171.83493,44.213184,-172.058578,44.285961C-172.405807,44.389061,-172.779999,44.347057,-173.095749,44.169544C-173.196289,43.317589,-173.291534,42.444462,-173.06134,41.587215C-172.897903,41.054958,-172.944275,40.480335,-173.190994,39.98119C-173.454926,39.397697,-173.672562,38.794357,-173.841873,38.176731C-174.148773,37.118397,-175.199188,36.642147,-176.154327,37.1819C-176.497955,37.391899,-176.791443,37.674561,-177.014221,38.010048C-177.168289,38.264969,-177.411575,38.45356,-177.696854,38.539211C-178.287201,38.643921,-178.839935,38.901134,-179.300217,39.285339C-179.350494,39.335613,-179.456329,39.327675,-179.593903,39.359425C-179.665344,39.094841,-179.736771,38.862003,-179.797638,38.623882C-179.85582,38.320431,-180.104477,38.090004,-180.411484,38.055031C-180.832169,37.983589,-181.250198,37.890987,-181.670898,37.803677C-182.12561,37.734467,-182.519379,37.450958,-182.729233,37.041676C-182.930374,36.688782,-183.153061,36.348591,-183.395981,36.023026C-183.613724,35.698608,-183.971527,35.495682,-184.361725,35.475338C-185.213669,35.401253,-186.065643,35.308647,-186.917587,35.210754C-187.944168,35.096985,-188.817291,34.594276,-189.642792,34.025421C-189.877792,33.807877,-190.040344,33.523422,-190.108459,33.210506C-190.194397,32.838314,-190.248383,32.459469,-190.269852,32.078091C-190.292587,31.830204,-190.139481,31.599991,-189.902084,31.525112C-189.37291,31.313442,-189.304123,30.932442,-189.351746,30.432381C-189.351196,30.145882,-189.32016,29.860287,-189.25914,29.580421L-188.72998,29.498402C-188.759079,29.397858,-188.756424,29.284088,-188.806702,29.254986C-189.584579,28.773441,-189.822708,28.059071,-189.790939,27.180653C-189.783508,26.818966,-189.847351,26.459354,-189.978806,26.122318C-190.306885,25.275654,-190.261902,24.421047,-190.208984,23.537338C-190.108398,22.532764,-190.259338,21.518948,-190.648193,20.587234C-191.031845,19.756443,-192.373276,19.441589,-193.066483,20.042194C-193.349701,20.299606,-193.589981,20.600616,-193.778214,20.933838C-194.042801,21.391571,-194.241241,21.89957,-194.508469,22.362591C-194.708511,22.739925,-194.960556,23.08728,-195.257248,23.394466C-195.615265,23.775131,-196.137711,23.955212,-196.654251,23.876007C-196.967865,23.854855,-197.282532,23.854855,-197.596161,23.876007C-197.740021,23.864048,-197.879303,23.819729,-198.003616,23.746361C-198.596283,23.415634,-199.165146,23.039925,-199.776337,22.748882C-200.07016,22.628716,-200.390137,22.586784,-200.705017,22.627174C-201.723663,22.733009,-202.744965,22.860008,-203.753021,23.034634C-204.097397,23.134884,-204.425369,23.284611,-204.726685,23.479134C-205.004501,23.622009,-205.279678,23.772823,-205.541611,23.942154C-205.803543,24.111488,-205.988754,24.259655,-206.203064,24.428986C-206.467651,24.64859,-206.771927,24.569218,-206.793091,24.222614C-206.775467,23.999062,-206.718124,23.780449,-206.623749,23.57703C-206.576126,23.426216,-206.414734,23.227779,-206.465012,23.14576C-206.647568,22.830902,-206.49411,22.632465,-206.327423,22.396988C-205.964935,21.867821,-205.782379,21.251343,-205.269089,20.809486C-205.118271,20.677197,-205.102386,20.380863,-205.036255,20.155968C-204.884995,19.660088,-204.549927,19.240776,-204.099625,18.983864C-203.835052,18.817177,-203.506958,18.600216,-203.16301,18.91507C-203.069885,18.962482,-202.962784,18.974693,-202.861374,18.949467C-201.903595,18.835693,-201.27388,19.338402,-200.781754,20.068653C-200.350494,20.703655,-199.958908,21.365112,-199.514404,21.989529C-199.39534,22.156216,-199.149292,22.232944,-198.940277,22.365238C-198.766663,21.887772,-198.881821,21.353065,-199.236603,20.989403C-199.372726,20.852734,-199.495026,20.702953,-199.60173,20.542259C-200.099152,19.698235,-200.980209,19.285488,-201.69458,18.690174C-201.851868,18.578999,-202.033173,18.506477,-202.22374,18.478508C-202.658127,18.373135,-203.100708,18.304977,-203.546661,18.27478C-204.249741,18.269558,-204.899796,18.647831,-205.24263,19.261677C-206.041046,20.620884,-206.717484,22.048149,-207.263992,23.526749C-207.528564,24.180271,-208.03392,24.746479,-208.486359,25.31004C-208.834442,25.76857,-209.06189,26.307137,-209.147812,26.876373C-209.412399,28.183414,-209.486496,29.551308,-210.301392,30.691666C-210.685043,32.138939,-211.544937,33.47773,-211.230087,35.086395C-211.141556,35.640594,-211.2285,36.208611,-211.47879,36.710938C-211.846573,37.520561,-211.925949,38.383106,-211.989441,39.269459C-212.100555,40.811977,-211.648132,42.224854,-211.195694,43.653606C-211.093048,43.955647,-211.029053,44.269466,-211.005203,44.587585C-210.939056,45.9105,-210.431061,47.077312,-209.970688,48.273228C-209.848969,48.593376,-209.72197,48.910873,-209.61351,49.236309C-209.442047,49.616718,-209.500458,50.061371,-209.764313,50.384602C-209.813324,50.426945,-209.84993,50.481819,-209.870163,50.543354C-209.970703,51.260376,-210.483994,51.741917,-210.872925,52.292248C-211.051529,52.516819,-211.095032,52.820301,-210.986694,53.085999C-210.899704,53.34388,-210.838547,53.609772,-210.804123,53.879749C-210.747147,54.413631,-210.527283,54.917057,-210.174423,55.321728C-209.549149,55.994404,-208.973511,56.711536,-208.451981,57.467499C-207.935715,58.259224,-207.631424,59.170269,-207.568268,60.113331C-207.472992,61.178364,-207.472992,62.249752,-207.568268,63.314793C-207.647629,63.978901,-207.496826,64.674751,-207.404221,65.349434C-207.2603,66.134041,-207.373505,66.944153,-207.727005,67.659248C-207.903427,68.024864,-207.965225,68.43528,-207.904266,68.836647C-207.841675,69.473747,-207.715836,70.10302,-207.528564,70.715187C-207.473022,71.008972,-207.450836,71.308083,-207.462418,71.606834C-207.422729,72.37677,-207.383057,73.144066,-207.346008,73.914001C-207.30069,74.49012,-207.362595,75.069649,-207.528564,75.623207C-207.669022,76.050102,-207.776917,76.487045,-207.851349,76.930252C-208.115936,78.430443,-208.809143,79.758644,-209.48912,81.092148C-209.588333,81.280342,-209.722076,81.448181,-209.883347,81.586922C-211.259186,82.809296,-212.613861,84.060776,-214.039963,85.21965C-214.730515,85.777916,-215.571899,86.150978,-216.336548,86.616653C-216.646103,86.804504,-216.945084,87.01088,-217.241409,87.222549C-217.335007,87.276855,-217.401321,87.368172,-217.423996,87.473984C-217.446686,87.579803,-217.423599,87.690277,-217.360474,87.778175C-216.857758,88.72274,-216.405334,89.696404,-215.854996,90.606567C-215.596161,90.947594,-215.263245,91.225342,-214.881332,91.418846C-214.317764,91.762802,-213.706589,92.032677,-213.129791,92.363411C-211.70369,93.180969,-210.290817,94.024994,-208.859421,94.837265C-208.446869,95.06205,-208.016846,95.253174,-207.573547,95.408768C-206.3022,95.864365,-205.124863,96.548538,-204.099564,97.427536C-203.044113,98.312035,-201.759918,98.879829,-200.395401,99.065308C-199.448181,99.22406,-198.829071,99.904037,-198.096161,100.406754C-198.03212,100.463531,-197.988449,100.539742,-197.971817,100.623711C-197.778687,101.520653,-197.471756,102.406998,-197.567001,103.340973C-197.579193,103.748734,-197.470566,104.150993,-197.254791,104.4972C-197.093399,104.822647,-196.75737,104.875557,-196.418716,104.838516C-196.13031,104.80677,-195.841934,104.764427,-195.532364,104.724747C-195.685837,105.518501,-196.201782,105.843941,-196.87117,105.589943C-197.076691,105.528923,-197.265732,105.422188,-197.424149,105.277733C-197.817841,104.852943,-198.307846,104.528992,-198.852905,104.33316C-198.922684,104.297523,-198.987579,104.253059,-199.046051,104.200867C-199.159821,103.499733,-198.469254,103.878082,-198.252289,103.560577C-198.642075,103.257179,-199.153595,103.158813,-199.628128,103.29599C-200.435196,103.520027,-201.187302,103.908249,-201.837402,104.436348C-202.414185,104.915253,-203.014801,105.365044,-203.562485,105.875679C-203.935165,106.257027,-204.284195,106.660843,-204.60759,107.084831C-205.329895,107.957947,-206.028397,108.852242,-206.774536,109.706848C-207.087387,110.028923,-207.430237,110.320396,-207.798462,110.577332C-208.063049,110.778419,-208.142426,110.96627,-207.957214,111.28112C-207.651566,111.762337,-207.668304,112.380836,-207.999542,112.84481C-208.179474,113.134102,-208.306671,113.453011,-208.375244,113.786728C-208.570724,114.596558,-208.895966,115.369423,-209.338333,116.075371C-209.470047,116.343079,-209.620346,116.601227,-209.788116,116.847961C-210.060516,117.199692,-210.35199,117.536201,-210.66124,117.856018C-211.454987,118.713257,-212.248749,119.586403,-213.095413,120.406609C-214.762283,122.036453,-216.50589,123.581596,-218.567001,124.71402C-219.426895,125.190277,-220.239166,125.75119,-221.054077,126.301529C-221.995667,126.972267,-223.034241,127.495117,-224.133835,127.851967C-224.72406,128.045288,-225.294601,128.294235,-225.837753,128.595459C-226.113068,128.753342,-226.357727,128.959473,-226.560059,129.203995C-226.843307,129.465576,-226.864502,129.90596,-226.607681,130.193527C-226.052063,130.884094,-225.68959,131.680496,-225.250366,132.437195C-224.811157,133.193893,-224.207916,133.953247,-223.697266,134.717896C-223.203552,135.388947,-222.786438,136.113113,-222.45372,136.876892C-222.062943,137.943298,-221.871033,139.072357,-221.887512,140.207993C-221.879944,140.746033,-221.797119,141.280396,-221.641449,141.795486C-221.512192,142.268509,-221.418457,142.750504,-221.360992,143.237473C-221.249878,144.031219,-221.62558,144.639755,-222.154739,145.184799C-222.683914,145.729843,-223.154877,146.187561,-223.6073,146.727325C-224.059738,147.26709,-224.419571,147.817413,-224.813797,148.370392C-224.842911,148.410095,-224.813797,148.492111,-224.813797,148.595291C-224.691269,148.61673,-224.565918,148.61673,-224.443375,148.595291C-223.448853,148.200577,-222.391129,147.989029,-221.321304,147.970871C-220.46405,147.933823,-219.913712,147.388779,-219.797302,146.528885C-219.770844,146.31723,-219.725861,146.10556,-219.720581,145.89389C-219.696747,144.975784,-219.157013,144.406921,-218.437347,143.957138C-218.187378,143.835693,-217.945267,143.69873,-217.712402,143.547028C-217.426834,143.304276,-217.161392,143.038834,-216.91864,142.753281C-216.736084,142.549545,-216.627609,142.261154,-216.418579,142.102402C-215.672455,141.530899,-214.881348,141.017609,-214.132568,140.446106C-213.531967,139.985733,-212.894333,140.033356,-212.251389,140.25296C-211.890991,140.382172,-211.550034,140.560226,-211.238037,140.782135C-210.708862,141.147263,-210.203522,141.544128,-209.703461,141.946304C-209.199921,142.380173,-208.625275,142.723892,-208.004837,142.962311C-207.86348,143.01059,-207.73436,143.089142,-207.62648,143.192505C-206.975601,143.840729,-206.332672,144.499542,-205.652679,145.190094C-205.883606,145.3918,-205.92157,145.736755,-205.740005,145.983841C-205.711548,145.927322,-205.679749,145.872543,-205.64476,145.819809C-204.925095,144.928162,-204.668442,145.0578,-204.004333,145.536697C-203.432846,145.946808,-202.871918,146.378082,-202.308365,146.804047C-202.239563,146.854324,-202.131104,146.920471,-202.131104,146.978668C-202.131104,147.36496,-201.795074,147.473434,-201.588699,147.679825L-200.548889,147.388779C-200.284317,147.314697,-200.040894,147.222092,-200.01973,146.909897C-199.969086,146.647858,-200.095871,146.38353,-200.33194,146.259003C-200.765854,146.047348,-200.898148,145.634598,-201.009262,145.221848C-201.060364,145.062225,-201.04213,144.888489,-200.959,144.74295C-200.736694,144.479752,-200.594391,144.158417,-200.548889,143.81691C-200.503922,143.898926,-200.424545,143.980957,-200.424545,144.060318C-200.424545,144.250809,-200.474823,144.438675,-200.495987,144.629181C-200.583313,145.444107,-200.578003,145.422928,-199.752518,145.544647C-199.41861,145.608505,-199.098206,145.729324,-198.805298,145.901825C-197.98317,146.354446,-196.966415,146.248978,-196.254715,145.637238C-196.128799,145.496384,-196.034119,145.33046,-195.976898,145.150406C-195.906342,144.931564,-195.848053,144.708969,-195.802277,144.483643C-195.648819,144.951965,-195.553574,145.277405,-195.439804,145.584305C-195.413116,145.707031,-195.348297,145.818161,-195.254593,145.90181C-194.897415,146.11348,-194.500534,146.261642,-194.15921,146.489182C-193.710144,146.774841,-193.289322,147.102646,-192.902451,147.46814C-192.482224,147.896851,-191.989578,148.247955,-191.447235,148.50531C-191.216721,148.614059,-190.973022,148.692337,-190.722275,148.738144C-190.153427,148.838684,-189.68512,148.521179,-189.732742,147.968201C-189.806839,147.17485,-189.550293,146.386047,-189.023666,145.78804C-188.830521,145.544632,-188.838455,145.147751,-188.73526,144.824951C-188.703934,144.641403,-188.625519,144.469116,-188.507721,144.32489C-187.721329,143.633133,-187.011688,142.858734,-186.391052,142.015076C-186.225845,141.833664,-186.049088,141.663101,-185.861893,141.50444C-185.719025,141.631439,-185.621124,141.737274,-185.507339,141.81929C-185.393555,141.901306,-185.210999,142.065353,-185.089294,142.044189C-184.449005,141.93306,-184.03096,142.308762,-183.626144,142.676544C-183.29805,142.991394,-182.985855,143.126343,-182.541351,142.97287C-182.200043,142.856461,-181.82962,142.824707,-181.483017,142.708282C-181.080429,142.560349,-180.645569,142.522903,-180.223602,142.599823C-180.061142,142.642929,-179.888046,142.615051,-179.74736,142.523087C-179.363708,142.075943,-178.953598,141.636749,-178.91391,140.98851C-178.877258,140.477371,-178.81279,139.968628,-178.720764,139.464508C-178.636093,138.99884,-178.419144,138.633713,-177.879395,138.554352C-177.67923,138.497971,-177.485809,138.419907,-177.302612,138.321503C-177.225418,139.001236,-177.200653,139.685883,-177.228516,140.369385C-177.33699,141.491211,-177.847641,142.390808,-178.358292,143.327423C-178.522064,143.649963,-178.65921,143.985321,-178.768387,144.330185C-179.032974,145.06044,-179.133514,145.163635,-179.908752,145.147751C-180.249649,145.090683,-180.585297,145.274368,-180.721024,145.592255C-181.099365,146.330429,-181.919586,146.475967,-182.591629,146.020874C-182.752518,145.92926,-182.935776,145.884354,-183.120789,145.891235C-183.550568,145.911255,-183.977448,145.811417,-184.353745,145.602829C-184.430405,145.565384,-184.510071,145.534409,-184.591873,145.510239C-185.494095,145.192734,-186.015335,145.89917,-185.779846,146.568573C-185.515274,147.36232,-185.835419,147.891479,-186.309021,148.468277C-186.838181,149.108566,-187.245636,149.849396,-187.743057,150.518799C-188.174332,151.098236,-188.650574,151.64592,-189.124176,152.193604C-189.43895,152.566711,-189.946182,152.715652,-190.412689,152.57196C-191.288467,152.307373,-192.042511,152.611664,-192.830994,152.889465C-194.040131,153.315445,-195.265152,153.699097,-196.484879,154.095963C-196.587341,154.125305,-196.693176,154.141312,-196.799728,154.143585C-197.445587,154.174896,-198.077194,154.344543,-198.651825,154.641006C-198.9646,154.830704,-199.34198,154.882431,-199.694275,154.783875C-199.985306,154.699203,-200.329285,154.805054,-200.649414,154.810333C-201.160065,154.810333,-201.670715,154.810333,-202.181351,154.810333C-202.477676,154.810333,-202.774017,154.810333,-203.072998,154.836777C-203.410583,154.866058,-203.709885,155.065582,-203.866745,155.365952C-204.163071,155.815735,-204.131332,155.974487,-203.692123,156.284042C-203.483109,156.429565,-203.250275,156.564499,-203.35611,156.887299C-204.165726,157.027542,-204.4991,156.715317,-204.835129,155.564377C-205.108582,155.535614,-205.379303,155.485168,-205.64476,155.413574C-206.437759,155.095581,-207.2509,154.830429,-208.078918,154.619812C-208.617722,154.467392,-209.195099,154.536942,-209.682297,154.812958C-210.476044,155.29451,-211.306839,155.077545,-212.127045,155.077545C-212.314911,155.077545,-212.53714,154.797089,-212.677383,154.601303C-213.021332,154.111832,-213.317673,153.590591,-213.651047,153.09581C-213.900131,152.709534,-214.378464,152.539948,-214.815216,152.683075C-215.425049,152.817474,-215.935303,153.232544,-216.191055,153.802246C-216.521393,154.419342,-216.695801,155.107849,-216.699051,155.8078C-216.766388,156.525238,-216.904663,157.234253,-217.111801,157.924469C-217.217636,158.358383,-217.360504,158.763184,-217.225571,159.231506C-217.136078,159.654541,-217.203781,160.095703,-217.416061,160.472397C-217.851501,161.351791,-218.231476,162.257538,-218.553772,163.184387C-218.671478,163.681107,-218.671478,164.198456,-218.553772,164.69516C-218.411591,165.276657,-218.234894,165.849182,-218.024597,166.409653C-217.916122,166.750961,-217.760025,167.076401,-217.939926,167.467987C-218.003433,167.605576,-217.894958,167.838409,-217.831467,168.015671C-217.640976,168.544846,-217.429291,169.055481,-217.236145,169.576721C-217.029449,170.006668,-217.01123,170.503311,-217.185883,170.947266C-217.245117,171.062256,-217.260162,171.194977,-217.22821,171.320313C-217.066818,171.78598,-217.204391,172.246353,-217.22821,172.709381C-217.259949,174.164581,-217.302292,175.619797,-217.058868,177.064423C-217.023315,177.22966,-217.017944,177.399979,-217.042999,177.567139C-217.246719,178.464081,-217.471619,179.353073,-217.683273,180.247375C-217.732101,180.411469,-217.757919,180.581543,-217.76001,180.752716C-217.731049,181.331345,-217.860962,181.90686,-218.135712,182.416946C-218.413513,182.96463,-218.244171,183.239792,-217.606537,183.319168C-217.077377,183.387955,-216.548203,183.422363,-216.019043,183.438232C-214.820465,183.475281,-213.621918,183.496429,-212.425995,183.517609C-212.255814,183.515793,-212.086365,183.495377,-211.920654,183.456757C-210.957565,183.260971,-209.997116,183.054581,-209.034042,182.86673C-208.866867,182.841629,-208.696045,182.857986,-208.536636,182.914368C-207.166092,183.372086,-205.724106,183.443527,-204.319168,183.708115C-203.796631,183.818542,-203.254089,183.787476,-202.747543,183.618149C-202.001419,183.369431,-201.326736,183.750443,-200.652054,184.00708C-200.432449,184.089096,-200.231354,184.216095,-200.017044,184.306061C-199.487885,184.525665,-199.27092,185.075989,-199.612228,185.536377C-199.953537,185.996765,-200.342484,186.531204,-200.998642,186.713776C-201.382828,186.845932,-201.756119,187.007813,-202.115173,187.197968C-203.259567,187.743729,-204.517654,188.008606,-205.784943,187.970551C-206.491714,187.95462,-207.197418,188.033813,-207.883087,188.206024C-208.213608,188.301132,-208.565872,188.288147,-208.888504,188.168976C-209.343582,187.983765,-209.729874,188.121353,-210.163788,188.327728C-211.526398,188.965363,-212.545044,190.068695,-213.717148,190.941803C-214.577042,191.576813,-215.405182,192.264725,-216.254501,192.905014C-216.42276,193.034531,-216.605713,193.143753,-216.799545,193.230438C-217.889633,193.722565,-218.982361,194.207626,-220.077744,194.685654C-220.350189,194.802505,-220.633896,194.891159,-220.924408,194.950241C-222.194382,195.221695,-223.434952,195.616028,-224.628586,196.12767C-225.869492,196.643616,-227.134186,197.109283,-228.388321,197.588181C-229.093613,197.849487,-229.843307,197.969955,-230.594955,197.942719C-230.785446,197.942719,-230.978607,197.977112,-231.169098,197.974472C-231.453995,197.948959,-231.726318,198.097122,-231.859665,198.350174C-232.087875,198.715378,-232.43866,198.987396,-232.849197,199.117477C-233.356216,199.282104,-233.816269,199.566116,-234.190643,199.945618C-234.477295,200.267517,-234.818558,200.536209,-235.1987,200.739365C-236.04007,201.189148,-236.299362,202.038467,-236.725327,202.779297z"/>
</svg>
